<?xml version="1.0" encoding="utf-8"?>
<svg xmlns="http://www.w3.org/2000/svg" style="margin: auto; display: block; shape-rendering: auto;" width="274" height="48" preserveAspectRatio="xMidYMid">
<style type="text/css">
  text {
    text-anchor: middle; font-size: 54px; opacity: 0;
  }
</style>
<g transform="translate(137,24)">
  <g transform="translate(0,0)"><g class="path" style="transform-origin: -96.315px 0.72821px; transform: matrix(0.01, 0, 0, 0.01, 0, 0); animation: 1s linear 0s 1 normal forwards running bounce-in-26547ed9-c32e-4289-96f3-1c885dab6ba6;"><path d="M69.01 4.43L69.71 5.35L69.71 5.35Q67.66 7.40 64.39 7.40L64.39 7.40L64.39 7.40Q61.13 7.40 59.18 5.26L59.18 5.26L59.18 5.26Q57.24 3.13 57.24-0.35L57.24-0.35L57.24-0.35Q57.24-3.83 58.48-8.37L58.48-8.37L60.91-16.36L60.91-16.36Q56.38-10.64 52.60-5.40L52.60-5.40L52.60-5.40Q45.14 4.91 42.50 8.42L42.50 8.42L41.53 8.15L39.42-17.98L35.10-10.10L35.10-10.10Q28.94 1.51 24.81 5.21L24.81 5.21L24.81 5.21Q20.68 8.91 13.82 8.91L13.82 8.91L13.82 8.91Q7.99 8.91 4.16 4.75L4.16 4.75L4.16 4.75Q1.13 1.35 1.13-3.40L1.13-3.40L1.13-3.40Q1.13-4.27 1.24-5.18L1.24-5.18L2.32-5.08L2.32-5.08Q2.21-4.21 2.21-3.40L2.21-3.40L2.21-3.40Q2.21 0.97 4.97 4.00L4.97 4.00L4.97 4.00Q8.48 7.83 13.82 7.83L13.82 7.83L13.82 7.83Q20.25 7.83 24.19 4.24L24.19 4.24L24.19 4.24Q28.13 0.65 34.13-10.58L34.13-10.58L43.85-28.24L43.85-28.24Q38.12-28.35 32.75-30.05L32.75-30.05L32.75-30.05Q27.38-31.75 23.14-31.75L23.14-31.75L23.14-31.75Q18.90-31.75 16.04-28.78L16.04-28.78L16.04-28.78Q13.18-25.81 13.18-21.11L13.18-21.11L12.10-21.11L12.10-21.11Q12.10-26.30 15.25-29.57L15.25-29.57L15.25-29.57Q18.41-32.83 23.44-32.83L23.44-32.83L23.44-32.83Q27.49-32.83 33.08-31.08L33.08-31.08L33.08-31.08Q38.66-29.32 45.14-29.32L45.14-29.32L47.41-0.16L48.49-1.67L48.49-1.67Q59.89-17.33 66.10-24.06L66.10-24.06L66.10-24.06Q72.31-30.78 76.14-30.78L76.14-30.78L76.14-29.70L76.14-29.70Q74.47-29.70 71.87-27.86L71.87-27.86L71.87-27.86Q71.50-26.68 69.34-19.63L69.34-19.63L69.34-19.63Q67.18-12.58 65.47-7.32L65.47-7.32L65.47-7.32Q63.77-2.05 63.77 1.30L63.77 1.30L63.77 1.30Q63.77 4.64 64.96 6.26L64.96 6.26L64.96 6.26Q66.10 6.26 67.09 5.80L67.09 5.80L67.09 5.80Q68.09 5.35 68.58 4.86L68.58 4.86L69.01 4.43" fill="#ffffff" stroke="none" stroke-width="none" transform="translate(-134.95001220703125,12.688204277886275)" style="fill: rgb(255, 255, 255);"></path></g><g class="path" style="transform-origin: -48.925px 2.42819px; transform: matrix(0.01, 0, 0, 0.01, 0, 0); animation: 1s linear 0.0733333s 1 normal forwards running bounce-in-26547ed9-c32e-4289-96f3-1c885dab6ba6;"><path d="M93.42 0.49L93.42 0.49L93.42 0.49Q88.67 0.49 88.24-3.67L88.24-3.67L88.24-3.67Q85.86 0.49 82.24 0.49L82.24 0.49L82.24 0.49Q78.62 0.49 76.49-1.70L76.49-1.70L76.49-1.70Q74.36-3.89 74.36-7.83L74.36-7.83L74.36-7.83Q74.36-13.99 77.38-17.50L77.38-17.50L77.38-17.50Q80.41-21.01 85.21-21.01L85.21-21.01L85.21-21.01Q89.15-21.01 90.45-17.28L90.45-17.28L90.45-17.28Q90.72-18.90 91.04-20.52L91.04-20.52L91.04-20.52Q95.04-20.52 96.98-20.84L96.98-20.84L97.69-21.01L93.96-0.59L93.96-0.59Q95.58-0.76 96.66-2.11L96.66-2.11L97.47-1.46L97.47-1.46Q95.85 0.49 93.42 0.49zM80.46-5.08L80.46-5.08Q80.46-2.65 81.08-1.70L81.08-1.70L81.08-1.70Q81.70-0.76 83.00-0.76L83.00-0.76L83.00-0.76Q84.29-0.76 85.64-2.16L85.64-2.16L85.64-2.16Q87.43-4.00 88.51-6.80L88.51-6.80L88.51-6.80Q88.67-7.51 89.13-10.18L89.13-10.18L89.13-10.18Q89.59-12.85 89.91-14.58L89.91-14.58L89.91-14.58Q89.75-16.63 88.78-18.14L88.78-18.14L88.78-18.14Q87.80-19.66 86.35-19.66L86.35-19.66L86.35-19.66Q83.70-19.66 82.08-14.93L82.08-14.93L82.08-14.93Q80.46-10.21 80.46-5.08L80.46-5.08" fill="#ffffff" stroke="none" stroke-width="none" transform="translate(-134.95001220703125,12.688204277886275)" style="fill: rgb(255, 255, 255);"></path></g><g class="path" style="transform-origin: -23.545px 7.1532px; transform: matrix(0.01, 0, 0, 0.01, 0, 0); animation: 1s linear 0.146667s 1 normal forwards running bounce-in-26547ed9-c32e-4289-96f3-1c885dab6ba6;"><path d="M118.26 5.89L118.26 5.89L118.26 5.89Q120.20 5.89 121.61 4.37L121.61 4.37L122.36 5.02L122.36 5.02Q121.07 6.86 118.26 6.86L118.26 6.86L118.26 6.86Q117.07 6.86 115.83 6.59L115.83 6.59L115.83 6.59Q112.16 9.94 106.43 9.94L106.43 9.94L106.43 9.94Q103.03 9.94 101.17 8.78L101.17 8.78L101.17 8.78Q99.31 7.61 99.31 5.75L99.31 5.75L99.31 5.75Q99.31 3.89 100.47 2.78L100.47 2.78L100.47 2.78Q101.63 1.67 104.60 1.67L104.60 1.67L104.60 1.67Q107.57 1.67 112.43 4.10L112.43 4.10L114.10-4.86L114.10-4.86Q111.67-0.38 107.84-0.38L107.84-0.38L107.84-0.38Q100.49-0.38 100.49-7.61L100.49-7.61L100.49-7.61Q100.49-13.66 103.55-17.33L103.55-17.33L103.55-17.33Q106.60-21.01 111.35-21.01L111.35-21.01L111.35-21.01Q114.10-21.01 115.61-19.33L115.61-19.33L115.61-19.33Q116.05-18.85 116.48-17.87L116.48-17.87L116.96-20.52L116.96-20.52Q120.96-20.52 122.80-20.84L122.80-20.84L123.50-21.01L119.93-1.08L119.93-1.08Q119.12 3.13 116.69 5.72L116.69 5.72L116.69 5.72Q117.40 5.89 118.26 5.89zM106.60-5.94L106.60-5.94Q106.60-3.46 107.08-2.62L107.08-2.62L107.08-2.62Q107.57-1.78 108.92-1.78L108.92-1.78L108.92-1.78Q110.27-1.78 111.67-3.24L111.67-3.24L111.67-3.24Q113.08-4.70 113.70-5.97L113.70-5.97L113.70-5.97Q114.32-7.24 114.75-8.42L114.75-8.42L115.88-14.63L115.88-15.01L115.88-15.01Q115.88-19.98 111.35-19.98L111.35-19.98L111.35-19.98Q109.62-19.98 108.11-15.28L108.11-15.28L108.11-15.28Q106.60-10.58 106.60-5.94L106.60-5.94zM106.22 8.86L106.22 8.86L106.22 8.86Q110.54 8.86 112.05 5.13L112.05 5.13L111.29 4.75L111.29 4.75Q110.65 4.43 110.51 4.35L110.51 4.35L110.51 4.35Q110.38 4.27 109.78 4.00L109.78 4.00L109.78 4.00Q109.19 3.73 108.92 3.65L108.92 3.65L108.92 3.65Q108.65 3.56 108.08 3.35L108.08 3.35L108.08 3.35Q107.51 3.13 107.14 3.05L107.14 3.05L107.14 3.05Q106.76 2.97 106.27 2.86L106.27 2.86L106.27 2.86Q105.46 2.70 103.90 2.70L103.90 2.70L103.90 2.70Q102.33 2.70 101.39 3.46L101.39 3.46L101.39 3.46Q100.44 4.21 100.44 5.67L100.44 5.67L100.44 5.67Q100.44 7.13 102.01 7.99L102.01 7.99L102.01 7.99Q103.57 8.86 106.22 8.86" fill="#ffffff" stroke="none" stroke-width="none" transform="translate(-134.95001220703125,12.688204277886275)" style="fill: rgb(255, 255, 255);"></path></g><g class="path" style="transform-origin: -3.86502px 2.42819px; transform: matrix(0.01, 0, 0, 0.01, 0, 0); animation: 1s linear 0.22s 1 normal forwards running bounce-in-26547ed9-c32e-4289-96f3-1c885dab6ba6;"><path d="M135.59-1.46L135.59-1.46Q133.97 0.49 131.54 0.49L131.54 0.49L131.54 0.49Q129.11 0.49 127.74-0.76L127.74-0.76L127.74-0.76Q126.36-2.00 126.36-4.00L126.36-4.00L126.36-4.00Q126.36-4.70 127.22-9.88L127.22-9.88L129.01-19.55L126.74-19.55L126.85-20.52L129.17-20.52L129.17-20.52Q133.16-20.52 135.05-20.84L135.05-20.84L135.81-21.01L132.08-0.59L132.08-0.59Q133.70-0.76 134.78-2.11L134.78-2.11L135.59-1.46" fill="#ffffff" stroke="none" stroke-width="none" transform="translate(-134.95001220703125,12.688204277886275)" style="fill: rgb(255, 255, 255);"></path></g><g class="path" style="transform-origin: -1.32501px -16.2868px; transform: matrix(0.01, 0, 0, 0.01, 0, 0); animation: 1s linear 0.293333s 1 normal forwards running bounce-in-26547ed9-c32e-4289-96f3-1c885dab6ba6;"><path d="M130.84-26.19L130.84-26.19L130.84-26.19Q129.71-27.32 129.71-28.94L129.71-28.94L129.71-28.94Q129.71-30.56 130.84-31.72L130.84-31.72L130.84-31.72Q131.98-32.89 133.60-32.89L133.60-32.89L133.60-32.89Q135.22-32.89 136.38-31.72L136.38-31.72L136.38-31.72Q137.54-30.56 137.54-28.94L137.54-28.94L137.54-28.94Q137.54-27.32 136.38-26.19L136.38-26.19L136.38-26.19Q135.22-25.06 133.60-25.06L133.60-25.06L133.60-25.06Q131.98-25.06 130.84-26.19" fill="#ffffff" stroke="none" stroke-width="none" transform="translate(-134.95001220703125,12.688204277886275)" style="fill: rgb(255, 255, 255);"></path></g><g class="path" style="transform-origin: 13.495px 2.42819px; transform: matrix(0.01, 0, 0, 0.01, 0, 0); animation: 1s linear 0.366667s 1 normal forwards running bounce-in-26547ed9-c32e-4289-96f3-1c885dab6ba6;"><path d="M151.69-11.29L151.69-11.29L151.69-11.29Q150.55-12.42 150.55-14.04L150.55-14.04L150.55-14.04Q150.55-15.66 151.69-16.82L151.69-16.82L151.69-16.82Q152.82-17.98 154.44-17.98L154.44-17.98L154.44-17.98Q154.93-17.98 155.68-17.77L155.68-17.77L155.68-17.77Q154.66-19.66 151.85-19.66L151.85-19.66L151.85-19.66Q149.04-19.66 146.88-16.09L146.88-16.09L146.88-16.09Q144.72-12.53 144.72-5.51L144.72-5.51L144.72-5.51Q144.72-3.08 145.83-1.92L145.83-1.92L145.83-1.92Q146.93-0.76 148.61-0.76L148.61-0.76L148.61-0.76Q150.28-0.76 151.66-1.40L151.66-1.40L151.66-1.40Q153.04-2.05 153.85-2.94L153.85-2.94L153.85-2.94Q154.66-3.83 155.25-4.81L155.25-4.81L155.25-4.81Q156.33-6.59 156.33-7.07L156.33-7.07L157.30-6.64L157.30-6.64Q157.14-5.78 156.33-4.35L156.33-4.35L156.33-4.35Q155.52-2.92 154.55-2.00L154.55-2.00L154.55-2.00Q153.58-1.08 151.69-0.30L151.69-0.30L151.69-0.30Q149.80 0.49 147.47 0.49L147.47 0.49L147.47 0.49Q143.10 0.49 140.86-1.59L140.86-1.59L140.86-1.59Q138.62-3.67 138.62-7.29L138.62-7.29L138.62-7.29Q138.62-13.72 141.83-17.36L141.83-17.36L141.83-17.36Q145.04-21.01 150.55-21.01L150.55-21.01L150.55-21.01Q154.28-21.01 156.28-19.12L156.28-19.12L156.28-19.12Q158.27-17.23 158.27-14.15L158.27-14.15L158.27-14.15Q158.27-12.20 157.11-11.18L157.11-11.18L157.11-11.18Q155.95-10.15 154.39-10.15L154.39-10.15L154.39-10.15Q152.82-10.15 151.69-11.29" fill="#ffffff" stroke="none" stroke-width="none" transform="translate(-134.95001220703125,12.688204277886275)" style="fill: rgb(255, 255, 255);"></path></g><g class="path" style="transform-origin: 62.045px 0.373215px; transform: matrix(0.01, 0, 0, 0.01, 0, 0); animation: 1s linear 0.44s 1 normal forwards running bounce-in-26547ed9-c32e-4289-96f3-1c885dab6ba6;"><path d="M173.29-16.74L173.29-16.74L173.29-16.74Q173.29-24.46 181.36-28.67L181.36-28.67L181.36-28.67Q189.43-32.89 204.17-32.89L204.17-32.89L204.17-32.89Q212.54-32.89 216.43-30.35L216.43-30.35L216.43-30.35Q220.32-27.81 220.32-23.44L220.32-23.44L220.32-23.44Q220.32-19.76 217.81-16.85L217.81-16.85L217.81-16.85Q215.30-13.93 210.76-12.53L210.76-12.53L210.76-12.53Q220.70-11.39 220.70-5.56L220.70-5.56L220.70-5.56Q220.70-2.54 218.57-0.51L218.57-0.51L218.57-0.51Q216.43 1.51 212.92 2.38L212.92 2.38L212.92 2.38Q206.98 3.83 200.72 3.83L200.72 3.83L200.72 2.75L200.72 2.75Q201.96 2.86 203.09 2.86L203.09 2.86L203.09 2.86Q208.49 2.86 211.25 0.97L211.25 0.97L211.25 0.97Q214.60-1.35 214.60-5.13L214.60-5.13L214.60-5.13Q214.60-7.29 213.27-8.99L213.27-8.99L213.27-8.99Q211.95-10.69 210.65-11.34L210.65-11.34L209.30-11.99L209.30-11.99Q207.58-11.61 205.42-11.61L205.42-11.61L205.42-12.69L205.42-12.69Q210.60-12.69 214.87-15.66L214.87-15.66L214.87-15.66Q219.13-18.63 219.13-23.44L219.13-23.44L219.13-23.44Q219.13-27.43 215.38-29.62L215.38-29.62L215.38-29.62Q211.63-31.81 204.66-31.86L204.66-31.86L204.66-31.86Q201.69-11.77 200.12-4.21L200.12-4.21L200.12-4.21Q199.04 1.62 194.72 4.94L194.72 4.94L194.72 4.94Q190.40 8.26 185.49 8.26L185.49 8.26L185.49 7.24L185.49 7.24Q187.60 7.07 188.60 6.78L188.60 6.78L188.60 6.78Q189.59 6.48 190.30 5.54L190.30 5.54L190.30 5.54Q191.00 4.59 191.32 3.29L191.32 3.29L191.32 3.29Q191.92 0.65 192.24-1.73L192.24-1.73L197.42-31.59L197.42-31.59Q186.35-30.67 180.33-26.81L180.33-26.81L180.33-26.81Q174.31-22.95 174.31-16.74L174.31-16.74L174.31-16.74Q174.31-13.93 176.26-11.99L176.26-11.99L176.26-11.99Q177.61-10.69 179.82-10.02L179.82-10.02L179.82-10.02Q182.03-9.34 183.47-9.26L183.47-9.26L183.47-9.26Q184.90-9.18 185.00-9.29L185.00-9.29L185.00-8.15L185.00-8.15Q178.63-8.15 175.55-11.18L175.55-11.18L175.55-11.18Q173.29-13.28 173.29-16.74" fill="#ffffff" stroke="none" stroke-width="none" transform="translate(-134.95001220703125,12.688204277886275)" style="fill: rgb(255, 255, 255);"></path></g><g class="path" style="transform-origin: 100.595px 2.42819px; transform: matrix(0.01, 0, 0, 0.01, 0, 0); animation: 1s linear 0.513333s 1 normal forwards running bounce-in-26547ed9-c32e-4289-96f3-1c885dab6ba6;"><path d="M233.44 0.49L233.44 0.49Q229.28 0.49 227.12-1.59L227.12-1.59L227.12-1.59Q224.96-3.67 224.96-6.83L224.96-6.83L224.96-6.83Q224.96-9.99 225.53-12.23L225.53-12.23L225.53-12.23Q226.10-14.47 227.39-16.55L227.39-16.55L227.39-16.55Q228.69-18.63 231.31-19.82L231.31-19.82L231.31-19.82Q233.93-21.01 237.84-21.01L237.84-21.01L237.84-21.01Q241.76-21.01 243.95-18.93L243.95-18.93L243.95-18.93Q246.13-16.85 246.13-13.23L246.13-13.23L246.13-13.23Q246.13-7.07 242.87-3.29L242.87-3.29L242.87-3.29Q239.60 0.49 233.44 0.49L233.44 0.49zM231.07-5.08L231.07-5.08L231.07-5.08Q231.07-0.76 233.58-0.76L233.58-0.76L233.58-0.76Q236.09-0.76 238.06-5.10L238.06-5.10L238.06-5.10Q240.03-9.45 240.03-15.44L240.03-15.44L240.03-15.44Q240.03-19.98 237.57-19.98L237.57-19.98L237.57-19.98Q235.12-19.98 233.09-15.85L233.09-15.85L233.09-15.85Q231.07-11.72 231.07-5.08" fill="#ffffff" stroke="none" stroke-width="none" transform="translate(-134.95001220703125,12.688204277886275)" style="fill: rgb(255, 255, 255);"></path></g><g class="path" style="transform-origin: 124.44px 2.42819px; transform: matrix(0.01, 0, 0, 0.01, 0, 0); animation: 1s linear 0.586667s 1 normal forwards running bounce-in-26547ed9-c32e-4289-96f3-1c885dab6ba6;"><path d="M262.39-10.26L265.19-3.40L265.19-3.40Q265.84-1.73 267.27-1.73L267.27-1.73L267.27-1.73Q268.70-1.73 269.68-3.56L269.68-3.56L270.54-3.08L270.54-3.08Q270-2.16 269.60-1.65L269.60-1.65L269.60-1.65Q269.19-1.13 268.03-0.57L268.03-0.57L268.03-0.57Q266.87 0 265.19 0L265.19 0L265.19 0Q260.44 0 258.82-4.00L258.82-4.00L256.77-8.96L256.77-8.96Q253.58-8.64 251.64-7.34L251.64-7.34L251.69-7.34L251.69-7.34Q253.31-7.34 254.45-6.21L254.45-6.21L254.45-6.21Q255.58-5.08 255.58-3.46L255.58-3.46L255.58-3.46Q255.58-1.84 254.45-0.68L254.45-0.68L254.45-0.68Q253.31 0.49 251.69 0.49L251.69 0.49L251.69 0.49Q250.07 0.49 248.91-0.68L248.91-0.68L248.91-0.68Q247.75-1.84 247.75-3.46L247.75-3.46L247.75-3.46Q247.75-6.10 250.21-7.96L250.21-7.96L250.21-7.96Q252.67-9.83 256.28-10.21L256.28-10.21L253.31-17.60L253.31-17.60Q252.67-19.28 251.29-19.28L251.29-19.28L251.29-19.28Q249.91-19.28 248.83-17.44L248.83-17.44L248.02-17.93L248.02-17.93Q248.56-18.85 248.97-19.36L248.97-19.36L248.97-19.36Q249.37-19.87 250.53-20.44L250.53-20.44L250.53-20.44Q251.69-21.01 253.37-21.01L253.37-21.01L253.37-21.01Q258.07-21.01 259.69-17.01L259.69-17.01L261.90-11.50L261.90-11.50Q265.25-11.83 267.14-13.18L267.14-13.18L267.08-13.18L267.08-13.18Q265.46-13.18 264.33-14.31L264.33-14.31L264.33-14.31Q263.20-15.44 263.20-17.06L263.20-17.06L263.20-17.06Q263.20-18.68 264.33-19.84L264.33-19.84L264.33-19.84Q265.46-21.01 267.08-21.01L267.08-21.01L267.08-21.01Q268.70-21.01 269.87-19.84L269.87-19.84L269.87-19.84Q271.03-18.68 271.03-17.06L271.03-17.06L271.03-17.06Q271.03-14.31 268.49-12.45L268.49-12.45L268.49-12.45Q265.95-10.58 262.39-10.26L262.39-10.26" fill="#ffffff" stroke="none" stroke-width="none" transform="translate(-134.95001220703125,12.688204277886275)" style="fill: rgb(255, 255, 255);"></path></g></g>
</g>
<style id="bounce-in-26547ed9-c32e-4289-96f3-1c885dab6ba6" data-anikit="">@keyframes bounce-in-26547ed9-c32e-4289-96f3-1c885dab6ba6
{
  0% {
    animation-timing-function: cubic-bezier(0.0383,0.3388,0.0421,0.6652);
    transform: matrix(0.01,0,0,0.01,0,0);
  }
  4.7% {
    animation-timing-function: cubic-bezier(0.3296,0.3336,0.5772,0.6672);
    transform: matrix(0.556,0,0,0.556,0,0);
  }
  8.4% {
    animation-timing-function: cubic-bezier(0.0781,0.1617,0.0874,0.9301);
    transform: matrix(0.979,0,0,0.979,0,0);
  }
  12.4% {
    animation-timing-function: cubic-bezier(0.8341,0.1496,0.8634,0.7673);
    transform: matrix(1.153,0,0,1.153,0,0);
  }
  16.3% {
    animation-timing-function: cubic-bezier(0.3264,0.3332,0.5758,0.6695);
    transform: matrix(1.008,0,0,1.008,0,0);
  }
  21.2% {
    animation-timing-function: cubic-bezier(0.0921,0.1883,0.3277,1);
    transform: matrix(0.704,0,0,0.704,0,0);
  }
  24.5% {
    animation-timing-function: cubic-bezier(0.6905,0.0944,0.8759,0.7624);
    transform: matrix(0.626,0,0,0.626,0,0);
  }
  27.7% {
    animation-timing-function: cubic-bezier(0.3688,0.332,0.624,0.6684);
    transform: matrix(0.704,0,0,0.704,0,0);
  }
  32.6% {
    animation-timing-function: cubic-bezier(0.1368,0.2364,0.2451,0.9049);
    transform: matrix(0.958,0,0,0.958,0,0);
  }
  37.4% {
    animation-timing-function: cubic-bezier(0.5936,0.0846,0.3495,1);
    transform: matrix(1.085,0,0,1.085,0,0);
  }
  49.5% {
    animation-timing-function: cubic-bezier(0.5522,0.0981,0.3807,1);
    transform: matrix(0.802,0,0,0.802,0,0);
  }
  62.4% {
    animation-timing-function: cubic-bezier(0.4497,0.1349,0.4911,1);
    transform: matrix(1.044,0,0,1.044,0,0);
  }
  74.1% {
    animation-timing-function: cubic-bezier(0.429,0,0.5239,1);
    transform: matrix(0.914,0,0,0.914,0,0);
  }
  87% {
    animation-timing-function: cubic-bezier(0.3501,0,0.6422,1);
    transform: matrix(1.013,0,0,1.013,0,0);
  }
  95.8% {
    animation-timing-function: cubic-bezier(0.3653,0,0.6776,1);
    transform: matrix(0.992,0,0,0.992,0,0);
  }
  100% {
    transform: matrix(1,0,0,1,0,0);
  }
}</style><style id="bounce-in-26547ed9-c32e-4289-96f3-1c885dab6ba6" data-anikit="">@keyframes bounce-in-26547ed9-c32e-4289-96f3-1c885dab6ba6
{
  0% {
    animation-timing-function: cubic-bezier(0.0383,0.3388,0.0421,0.6652);
    transform: matrix(0.01,0,0,0.01,0,0);
  }
  4.7% {
    animation-timing-function: cubic-bezier(0.3296,0.3336,0.5772,0.6672);
    transform: matrix(0.556,0,0,0.556,0,0);
  }
  8.4% {
    animation-timing-function: cubic-bezier(0.0781,0.1617,0.0874,0.9301);
    transform: matrix(0.979,0,0,0.979,0,0);
  }
  12.4% {
    animation-timing-function: cubic-bezier(0.8341,0.1496,0.8634,0.7673);
    transform: matrix(1.153,0,0,1.153,0,0);
  }
  16.3% {
    animation-timing-function: cubic-bezier(0.3264,0.3332,0.5758,0.6695);
    transform: matrix(1.008,0,0,1.008,0,0);
  }
  21.2% {
    animation-timing-function: cubic-bezier(0.0921,0.1883,0.3277,1);
    transform: matrix(0.704,0,0,0.704,0,0);
  }
  24.5% {
    animation-timing-function: cubic-bezier(0.6905,0.0944,0.8759,0.7624);
    transform: matrix(0.626,0,0,0.626,0,0);
  }
  27.7% {
    animation-timing-function: cubic-bezier(0.3688,0.332,0.624,0.6684);
    transform: matrix(0.704,0,0,0.704,0,0);
  }
  32.6% {
    animation-timing-function: cubic-bezier(0.1368,0.2364,0.2451,0.9049);
    transform: matrix(0.958,0,0,0.958,0,0);
  }
  37.4% {
    animation-timing-function: cubic-bezier(0.5936,0.0846,0.3495,1);
    transform: matrix(1.085,0,0,1.085,0,0);
  }
  49.5% {
    animation-timing-function: cubic-bezier(0.5522,0.0981,0.3807,1);
    transform: matrix(0.802,0,0,0.802,0,0);
  }
  62.4% {
    animation-timing-function: cubic-bezier(0.4497,0.1349,0.4911,1);
    transform: matrix(1.044,0,0,1.044,0,0);
  }
  74.1% {
    animation-timing-function: cubic-bezier(0.429,0,0.5239,1);
    transform: matrix(0.914,0,0,0.914,0,0);
  }
  87% {
    animation-timing-function: cubic-bezier(0.3501,0,0.6422,1);
    transform: matrix(1.013,0,0,1.013,0,0);
  }
  95.8% {
    animation-timing-function: cubic-bezier(0.3653,0,0.6776,1);
    transform: matrix(0.992,0,0,0.992,0,0);
  }
  100% {
    transform: matrix(1,0,0,1,0,0);
  }
}</style></svg>